<mxfile host="app.diagrams.net" modified="2021-06-15T08:58:45.211Z" agent="5.0 (X11; Linux x86_64) AppleWebKit/537.36 (KHTML, like Gecko) Chrome/91.0.4472.101 Safari/537.36" etag="QoHndTlEEg3ytMdoIrcf" version="14.7.8" type="github">
  <diagram id="Lo27I6KwUBpTYxFiWJQo" name="Page-1">
    <mxGraphModel dx="1350" dy="774" grid="0" gridSize="10" guides="1" tooltips="1" connect="1" arrows="1" fold="1" page="1" pageScale="1" pageWidth="1654" pageHeight="1169" math="0" shadow="0">
      <root>
        <mxCell id="0" />
        <mxCell id="1" parent="0" />
        <mxCell id="cUs_cYtFZJ4uflNicQ8_-10" style="edgeStyle=orthogonalEdgeStyle;rounded=0;orthogonalLoop=1;jettySize=auto;html=1;strokeWidth=3;" edge="1" parent="1" source="cUs_cYtFZJ4uflNicQ8_-3" target="cUs_cYtFZJ4uflNicQ8_-8">
          <mxGeometry relative="1" as="geometry">
            <mxPoint x="381" y="438" as="sourcePoint" />
            <mxPoint x="553" y="383" as="targetPoint" />
          </mxGeometry>
        </mxCell>
        <mxCell id="cUs_cYtFZJ4uflNicQ8_-12" value="&lt;font style=&quot;font-size: 20px&quot;&gt;PointCloud&lt;br&gt;(E, A, D, I)&lt;br&gt;&lt;/font&gt;" style="edgeLabel;html=1;align=center;verticalAlign=middle;resizable=0;points=[];" vertex="1" connectable="0" parent="cUs_cYtFZJ4uflNicQ8_-10">
          <mxGeometry x="-0.1802" relative="1" as="geometry">
            <mxPoint x="9" y="-36" as="offset" />
          </mxGeometry>
        </mxCell>
        <mxCell id="cUs_cYtFZJ4uflNicQ8_-3" value="&lt;span style=&quot;font-size: 20px&quot;&gt;Cartesian Spherical Convertor&lt;/span&gt;" style="rounded=1;whiteSpace=wrap;html=1;strokeWidth=3;fillColor=#dae8fc;" vertex="1" parent="1">
          <mxGeometry x="165" y="190" width="120" height="292" as="geometry" />
        </mxCell>
        <mxCell id="cUs_cYtFZJ4uflNicQ8_-4" value="" style="endArrow=classic;html=1;strokeWidth=3;" edge="1" parent="1" target="cUs_cYtFZJ4uflNicQ8_-3">
          <mxGeometry width="50" height="50" relative="1" as="geometry">
            <mxPoint x="19" y="336" as="sourcePoint" />
            <mxPoint x="42" y="311" as="targetPoint" />
          </mxGeometry>
        </mxCell>
        <mxCell id="cUs_cYtFZJ4uflNicQ8_-5" value="&lt;font style=&quot;font-size: 20px&quot;&gt;PointCloud&lt;br&gt;(X, Y, Z, I)&lt;/font&gt;" style="edgeLabel;html=1;align=center;verticalAlign=middle;resizable=0;points=[];" vertex="1" connectable="0" parent="cUs_cYtFZJ4uflNicQ8_-4">
          <mxGeometry x="-0.5442" relative="1" as="geometry">
            <mxPoint x="39" y="-35" as="offset" />
          </mxGeometry>
        </mxCell>
        <mxCell id="cUs_cYtFZJ4uflNicQ8_-8" value="&lt;span style=&quot;font-size: 20px&quot;&gt;Unwrapping&lt;/span&gt;" style="rounded=1;whiteSpace=wrap;html=1;strokeWidth=3;fillColor=#dae8fc;" vertex="1" parent="1">
          <mxGeometry x="434" y="190" width="120" height="292" as="geometry" />
        </mxCell>
        <mxCell id="cUs_cYtFZJ4uflNicQ8_-13" value="" style="endArrow=classic;html=1;strokeWidth=3;exitX=1;exitY=0.75;exitDx=0;exitDy=0;entryX=0;entryY=0.75;entryDx=0;entryDy=0;" edge="1" parent="1" source="cUs_cYtFZJ4uflNicQ8_-8" target="cUs_cYtFZJ4uflNicQ8_-20">
          <mxGeometry width="50" height="50" relative="1" as="geometry">
            <mxPoint x="605" y="440" as="sourcePoint" />
            <mxPoint x="764" y="409" as="targetPoint" />
          </mxGeometry>
        </mxCell>
        <mxCell id="cUs_cYtFZJ4uflNicQ8_-18" value="&lt;font style=&quot;font-size: 20px&quot;&gt;Intensities&lt;/font&gt;" style="edgeLabel;html=1;align=center;verticalAlign=middle;resizable=0;points=[];" vertex="1" connectable="0" parent="cUs_cYtFZJ4uflNicQ8_-13">
          <mxGeometry x="-0.1048" y="5" relative="1" as="geometry">
            <mxPoint x="36" y="-17" as="offset" />
          </mxGeometry>
        </mxCell>
        <mxCell id="cUs_cYtFZJ4uflNicQ8_-14" value="" style="endArrow=classic;html=1;strokeWidth=3;exitX=1;exitY=0.5;exitDx=0;exitDy=0;entryX=0;entryY=0.5;entryDx=0;entryDy=0;" edge="1" parent="1" source="cUs_cYtFZJ4uflNicQ8_-8" target="cUs_cYtFZJ4uflNicQ8_-20">
          <mxGeometry width="50" height="50" relative="1" as="geometry">
            <mxPoint x="564" y="391" as="sourcePoint" />
            <mxPoint x="764" y="336" as="targetPoint" />
          </mxGeometry>
        </mxCell>
        <mxCell id="cUs_cYtFZJ4uflNicQ8_-17" value="&lt;font style=&quot;font-size: 20px&quot;&gt;Distances&lt;/font&gt;" style="edgeLabel;html=1;align=center;verticalAlign=middle;resizable=0;points=[];" vertex="1" connectable="0" parent="cUs_cYtFZJ4uflNicQ8_-14">
          <mxGeometry x="-0.0952" relative="1" as="geometry">
            <mxPoint x="34" y="-19" as="offset" />
          </mxGeometry>
        </mxCell>
        <mxCell id="cUs_cYtFZJ4uflNicQ8_-15" value="" style="endArrow=classic;html=1;strokeWidth=3;exitX=1;exitY=0.25;exitDx=0;exitDy=0;" edge="1" parent="1" source="cUs_cYtFZJ4uflNicQ8_-8" target="cUs_cYtFZJ4uflNicQ8_-19">
          <mxGeometry width="50" height="50" relative="1" as="geometry">
            <mxPoint x="574" y="401" as="sourcePoint" />
            <mxPoint x="764" y="263" as="targetPoint" />
          </mxGeometry>
        </mxCell>
        <mxCell id="cUs_cYtFZJ4uflNicQ8_-16" value="&lt;font style=&quot;font-size: 20px&quot;&gt;Unwrapped sphere&lt;/font&gt;" style="edgeLabel;html=1;align=center;verticalAlign=middle;resizable=0;points=[];" vertex="1" connectable="0" parent="cUs_cYtFZJ4uflNicQ8_-15">
          <mxGeometry x="-0.5249" y="3" relative="1" as="geometry">
            <mxPoint x="51" y="-18" as="offset" />
          </mxGeometry>
        </mxCell>
        <mxCell id="cUs_cYtFZJ4uflNicQ8_-21" style="edgeStyle=orthogonalEdgeStyle;rounded=0;orthogonalLoop=1;jettySize=auto;html=1;entryX=0;entryY=0.25;entryDx=0;entryDy=0;strokeWidth=3;" edge="1" parent="1" source="cUs_cYtFZJ4uflNicQ8_-19" target="cUs_cYtFZJ4uflNicQ8_-20">
          <mxGeometry relative="1" as="geometry" />
        </mxCell>
        <mxCell id="cUs_cYtFZJ4uflNicQ8_-22" value="&lt;font style=&quot;font-size: 20px&quot;&gt;Spherical Image&lt;/font&gt;" style="edgeLabel;html=1;align=center;verticalAlign=middle;resizable=0;points=[];" vertex="1" connectable="0" parent="cUs_cYtFZJ4uflNicQ8_-21">
          <mxGeometry x="0.1667" y="-1" relative="1" as="geometry">
            <mxPoint x="-22" y="-23" as="offset" />
          </mxGeometry>
        </mxCell>
        <mxCell id="cUs_cYtFZJ4uflNicQ8_-19" value="&lt;span style=&quot;font-size: 20px&quot;&gt;Normalization&lt;/span&gt;" style="rounded=1;whiteSpace=wrap;html=1;strokeWidth=3;fillColor=#dae8fc;" vertex="1" parent="1">
          <mxGeometry x="766" y="238" width="143" height="50" as="geometry" />
        </mxCell>
        <mxCell id="cUs_cYtFZJ4uflNicQ8_-20" value="&lt;span style=&quot;font-size: 20px&quot;&gt;Image Creation&lt;/span&gt;" style="rounded=1;whiteSpace=wrap;html=1;strokeWidth=3;fillColor=#dae8fc;" vertex="1" parent="1">
          <mxGeometry x="1107" y="190" width="120" height="292" as="geometry" />
        </mxCell>
        <mxCell id="cUs_cYtFZJ4uflNicQ8_-23" value="" style="endArrow=classic;html=1;strokeWidth=3;" edge="1" parent="1" source="cUs_cYtFZJ4uflNicQ8_-20">
          <mxGeometry width="50" height="50" relative="1" as="geometry">
            <mxPoint x="991" y="400" as="sourcePoint" />
            <mxPoint x="1438" y="336" as="targetPoint" />
          </mxGeometry>
        </mxCell>
        <mxCell id="cUs_cYtFZJ4uflNicQ8_-24" value="&lt;font style=&quot;font-size: 20px&quot;&gt;Multi-channel Image&lt;/font&gt;" style="edgeLabel;html=1;align=center;verticalAlign=middle;resizable=0;points=[];" vertex="1" connectable="0" parent="cUs_cYtFZJ4uflNicQ8_-23">
          <mxGeometry x="-0.283" y="-1" relative="1" as="geometry">
            <mxPoint x="26" y="-25" as="offset" />
          </mxGeometry>
        </mxCell>
      </root>
    </mxGraphModel>
  </diagram>
</mxfile>
